<mxfile host="app.diagrams.net" modified="2023-05-29T18:56:49.058Z" agent="Mozilla/5.0 (Windows NT 10.0; Win64; x64) AppleWebKit/537.36 (KHTML, like Gecko) Chrome/113.0.0.0 Safari/537.36" version="21.3.5" etag="b5EQbacv1_MGMFrkbcdF" type="github">
  <diagram name="PÃ¡gina-1" id="hHZQKaVx3r7QKWwvkuFB">
    <mxGraphModel>
      <root>
        <mxCell id="0" />
        <mxCell id="1" parent="0" />
      </root>
    </mxGraphModel>
  </diagram>
</mxfile>
